{
	"asset":{
		"generator":"Khronos glTF Blender I/O v3.5.30",
		"version":"2.0"
	},
	"scene":0,
	"scenes":[
		{
			"name":"Scene",
			"nodes":[
				0
			]
		}
	],
	"nodes":[
		{
			"mesh":0,
			"name":"Plane.001"
		}
	],
	"meshes":[
		{
			"name":"Plane.001",
			"primitives":[
				{
					"attributes":{
						"POSITION":0,
						"TEXCOORD_0":1,
						"NORMAL":2
					},
					"indices":3
				}
			]
		}
	],
	"accessors":[
		{
			"bufferView":0,
			"componentType":5126,
			"count":17128,
			"max":[
				894.1067504882812,
				-142.84033203125,
				1700.0401611328125
			],
			"min":[
				-906.0933227539062,
				-179.10302734375,
				-1768
			],
			"type":"VEC3"
		},
		{
			"bufferView":1,
			"componentType":5126,
			"count":17128,
			"type":"VEC2"
		},
		{
			"bufferView":2,
			"componentType":5126,
			"count":17128,
			"type":"VEC3"
		},
		{
			"bufferView":3,
			"componentType":5123,
			"count":34632,
			"type":"SCALAR"
		}
	],
	"bufferViews":[
		{
			"buffer":0,
			"byteLength":205536,
			"byteOffset":0,
			"target":34962
		},
		{
			"buffer":0,
			"byteLength":137024,
			"byteOffset":205536,
			"target":34962
		},
		{
			"buffer":0,
			"byteLength":205536,
			"byteOffset":342560,
			"target":34962
		},
		{
			"buffer":0,
			"byteLength":69264,
			"byteOffset":548096,
			"target":34963
		}
	],
	"buffers":[
		{
			"byteLength":617360,
			"uri":"wiregibflat.bin"
		}
	]
}
