<?xml version="1.0" encoding="UTF-8" standalone="no"?>
<!-- Created with Inkscape (http://www.inkscape.org/) -->

<svg
   width="81.750999mm"
   height="81.690506mm"
   viewBox="0 0 81.750999 81.690506"
   version="1.1"
   id="svg16484"
   xmlns="http://www.w3.org/2000/svg"
   xmlns:svg="http://www.w3.org/2000/svg">
  <defs
     id="defs16481" />
  <g
     id="layer1"
     transform="translate(-59.611997,-30.654759)">
    <path
       style="display:inline;fill:none;stroke:#bbcc00;stroke-width:3.5;stroke-linecap:round;stroke-linejoin:round;stroke-dasharray:none;stroke-opacity:1"
       d="m 82.888554,104.14874 h 33.597896 v 5.56547 c 1.87039,1.83536 11.11291,1.93731 12.87941,-0.30202 v -5.26345 c 0.71494,0 2.64213,-2.31355 3.24757,-4.03174 V 86.340434 c 0,-10.12365 -0.635,-17.268357 -2.01587,-27.212854 -0.73378,-5.282192 -1.33536,-10.420049 -4.25551,-16.126985 -2.77362,-5.420561 -8.02625,-11.087301 -11.87148,-11.087301 -15.455025,0 -14.17323,-0.01944 -15.455025,0 -1.335394,0.02025 0,0 -14.111121,0 -6.679906,0 -10.680054,8.01025 -12.54323,11.759259 -2.35326,4.735138 -2.31489,8.545623 -3.13576,12.767197 -1.91057,9.825697 -2.46386,19.510756 -2.46386,29.566136 V 100.117 c 0.6051,1.71819 2.46386,4.03174 3.174688,4.03174 v 5.26345 c 1.327787,2.22292 11.521632,2.26517 12.952292,0 v -5.26345 M 99.527115,44.456526 h 14.340605 c 0.38715,0 2.97616,-0.115121 5.08535,1.567879 4.53254,3.616691 4.86605,9.575397 5.52379,15.119042 0.2571,2.166981 0.5799,8.981446 -1.9428,9.967349 -1.4162,0.08463 -7.59554,0.11202 -10.75132,0.11202 H 87.592264 c -2.89534,0 -9.936009,0 -11.423289,-0.33598 -2.53039,-1.493359 -1.272696,-7.379387 -0.895921,-9.743389 0.895921,-5.621262 1.0072,-12.337742 5.599631,-15.119042 1.85339,-1.122438 3.374602,-1.567879 4.892542,-1.567879 z M 81.544644,86.340434 c 7.834677,0 7.838662,5.972266 0,5.972266 -7.766329,0 -8.055025,-5.972266 0,-5.972266 M 117.1584,83.430066 c 8.09508,-1.2368 8.91419,12.09746 0.67196,11.98322 -7.30458,-0.10146 -7.80035,-10.89418 -0.67196,-11.98322 z"
       id="path434-9-4" />
  </g>
</svg>
