<?xml version="1.0" encoding="UTF-8" standalone="no"?>
<!-- Created with Inkscape (http://www.inkscape.org/) -->

<svg
  width="116.2mm"
  height="116.2mm"
  viewBox="0 0 116.2 116.2"
  version="1.1"
  id="svg5"
  xml:space="preserve"
  xmlns="http://www.w3.org/2000/svg"
  xmlns:svg="http://www.w3.org/2000/svg"><defs
    id="defs2"><rect
      x="292.97244"
      y="685.51312"
      width="263.35385"
      height="210.19003"
      id="rect15076" /></defs>
        <g
    id="layer1"
    transform="translate(-20.6,-126.1)">
    <a href="/" target="_top"><path
      style="display:inline;fill:#353535;stroke:none;stroke-width:0.671958"
      d="m 90.757928,183.55229 27.588152,15.92803 v 4.3881 c 1.53582,2.33379 9.12511,6.79585 10.57563,5.86771 v -4.14997 c 0.58706,0.33894 2.16953,-0.57154 2.66667,-1.63922 v -10.86213 c 0,-7.982 -0.52142,-13.91628 -1.65529,-22.41166 -0.60252,-4.51262 -1.0965,-8.84875 -3.49431,-14.73277 -2.2775,-5.58875 -6.59057,-12.54685 -9.748,-14.36979 -12.69054,-7.32689 -11.63803,-6.73455 -12.69054,-7.32689 -1.09653,-0.61711 0,0 -11.587026,-6.68977 -5.485053,-3.1668 -8.769684,1.2525 -10.299588,3.32512 -1.932326,2.61779 -1.90082,5.64036 -2.574858,8.5797 -1.568821,6.84131 -2.023143,14.2152 -2.023143,22.14336 v 11.12591 c 0.496864,1.64157 2.023143,4.34688 2.606823,4.68387 v 4.14997 c 1.090282,2.38214 9.460726,7.24813 10.63548,6.1404 v -4.14997 m 13.662372,-46.68194 12.27048,7.08436 c 2.75882,1.59281 2.75882,1.59281 2.75882,6.33638 l -15.0293,-8.67716 -14.765893,-8.5251 c 0,-4.74358 0,-4.74358 2.758807,-3.15078 m 12.007086,14.43789 11.77547,6.79856 c 0.3179,0.18354 2.4438,1.32017 4.17572,3.64705 3.72179,5 3.99564,9.85661 4.53573,14.53932 0.21111,1.83044 0.47617,7.35634 -1.59529,6.93772 -1.16288,-0.60467 -6.2369,-3.51256 -8.8282,-5.00865 L 94.620273,159.82177 c -2.377443,-1.37262 -8.158728,-4.71044 -9.379975,-5.68043 -2.077772,-2.37704 -1.045046,-6.42164 -0.735665,-8.10692 0.735665,-4.00734 0.82704,-9.2502 4.598009,-9.26594 1.52187,-0.006 2.770979,0.36363 4.0174,1.08325 m -3.465635,31.02248 c 6.433267,3.71425 6.436539,8.42498 0,4.70884 -6.377145,-3.68185 -6.614201,-8.52755 0,-4.70884 m 29.243423,14.58902 c 6.64709,2.86255 7.31969,13.76427 0.55177,9.76674 -5.99799,-3.54294 -6.40508,-12.28749 -0.55177,-9.76674 z"
      id="path7693" />
    </a><a href="/" target="_top"><path
      style="display:inline;vector-effect:non-scaling-stroke;fill:#353535;fill-opacity:1;stroke:none;stroke-width:0.264583"
      d="m 31.804552,158.67388 53.920144,-31.39017 4.677134,1.04742 9.71984,4.82339 19.3666,11.76612 2.93276,4.41186 4.86493,16.31847 2.95002,39.67414 -2.77129,1.6 1.43437,2.82479 -54.072632,31.47637 -8.31888,-11.83459 -39.429118,-24.23625 z"
      id="path1227" />
    </a><a href="/" target="_top"><path
      style="display:inline;fill:#353535;stroke:#bbcc00;stroke-width:2;stroke-linecap:round;stroke-linejoin:round;stroke-opacity:1;paint-order:normal"
      d="m 36.683461,215.02972 27.588149,15.92802 v 4.38811 c 1.535828,2.33379 9.125113,6.79585 10.575635,5.86771 v -4.14997 c 0.587056,0.33894 2.169525,-0.57154 2.666668,-1.63922 v -10.86213 c 0,-7.982 -0.521416,-13.91628 -1.655286,-22.41166 -0.602527,-4.51262 -1.0965,-8.84876 -3.494315,-14.73277 -2.277495,-5.58875 -6.590573,-12.54685 -9.747997,-14.36979 -12.690542,-7.32689 -11.638028,-6.73455 -12.690542,-7.32689 -1.096528,-0.61711 0,0 -11.587026,-6.68977 -5.485053,-3.1668 -8.769684,1.2525 -10.299589,3.32512 -1.932325,2.61779 -1.900819,5.64036 -2.574857,8.5797 -1.568821,6.84131 -2.023143,14.2152 -2.023143,22.14336 v 11.12591 c 0.496864,1.64157 2.023143,4.34688 2.606823,4.68387 v 4.14997 c 1.090282,2.38214 9.460726,7.24813 10.63548,6.1404 v -4.14997 m 13.662377,-39.17635 11.775461,6.79856 c 0.317899,0.18354 2.443806,1.32017 4.17572,3.64705 3.721792,5 3.995646,9.85661 4.535734,14.53932 0.211112,1.83044 0.476172,7.35634 -1.595286,6.93772 -1.16288,-0.60467 -6.236905,-3.51256 -8.828202,-5.00865 L 40.545806,191.2992 c -2.377443,-1.37262 -8.158728,-4.71044 -9.379976,-5.68043 -2.077772,-2.37705 -1.045045,-6.42164 -0.735664,-8.10692 0.735664,-4.00734 0.82704,-9.2502 4.598009,-9.26594 1.521869,-0.006 2.770979,0.36363 4.0174,1.08325 z M 35.57994,200.35164 c 6.433267,3.71425 6.436539,8.42498 0,4.70884 -6.377145,-3.68185 -6.614201,-8.52755 0,-4.70884 m 29.243426,14.58902 c 6.647091,2.86255 7.319685,13.76427 0.551765,9.76674 -5.99799,-3.54294 -6.405081,-12.2875 -0.551765,-9.76674 z"
      id="path7728" />
    </a><g
      aria-label="3D"
      id="text14666"
      style="display:inline;opacity:1;fill:#bbcc00;fill-opacity:1;stroke-width:0.264583;paint-order:markers stroke fill"
      transform="translate(0.01546335,-0.09248553)">
      <a href="/" target="_top"><path
        d="m 52.275597,151.06848 c 1.895559,-1.0944 3.820983,-1.87794 5.776272,-2.35062 1.978406,-0.48602 3.81465,-0.65373 5.508731,-0.50313 1.694466,0.12414 3.132726,0.52743 4.31478,1.20989 1.182054,0.68246 1.926817,1.48615 2.234289,2.41106 0.28474,0.91179 0.111766,1.77287 -0.518923,2.58322 l 0.136391,0.0787 c 1.726817,-0.5245 3.46,-0.69833 5.199543,-0.52148 1.73993,0.15038 3.325947,0.63899 4.758051,1.46581 1.907932,1.20832 2.654634,2.6671 2.240106,4.37634 -0.414144,1.68277 -2.250935,3.46507 -5.510371,5.34691 -2.242308,1.29459 -4.421822,2.21171 -6.538543,2.75134 -2.116721,0.53963 -4.056412,0.72769 -5.819073,0.56418 -1.762662,-0.1635 -3.280483,-0.61274 -4.553464,-1.34769 l -0.716052,-0.41341 6.102775,-3.52344 c 1.864008,1.07618 3.998074,0.92027 6.402197,-0.46776 2.404124,-1.38802 2.560522,-2.68574 0.469196,-3.89317 -0.795613,-0.45935 -1.629171,-0.67368 -2.500675,-0.64298 -0.87112,0.004 -1.664986,0.2132 -2.3816,0.62693 l -2.531264,1.46143 -4.194018,-2.42142 1.976466,-1.14111 c 0.716614,-0.41374 1.089942,-0.86552 1.119985,-1.35533 0.03043,-0.51629 -0.352166,-1.00411 -1.14778,-1.46345 -0.750149,-0.4331 -1.664039,-0.64043 -2.741668,-0.62197 -1.054512,0.005 -2.055658,0.28126 -3.003438,0.82847 -0.994012,0.57389 -1.518368,1.16536 -1.573066,1.7744 -0.0547,0.60905 0.281662,1.12356 1.00908,1.54353 l -5.790701,3.34327 -0.852443,-0.49216 c -1.182053,-0.68246 -1.891949,-1.5194 -2.129686,-2.51083 -0.214621,-1.00477 0.110535,-2.08494 0.975467,-3.24052 0.888049,-1.16893 2.314527,-2.32061 4.279436,-3.45505 z"
        id="path15061" />
      </a><a href="/" target="_top"><path
        d="m 77.840289,136.78117 c 8.345081,-4.81804 16.427493,-4.96969 24.247231,-0.45496 7.81975,4.51473 7.55708,9.18111 -0.78801,13.99915 l -10.333105,5.96582 -23.459224,-13.54419 z m 15.163138,11.83745 2.531265,-1.46143 c 3.213202,-1.85514 3.126284,-3.76047 -0.260756,-5.71597 l -2.045863,-1.18118 c -3.387039,-1.95551 -6.68716,-2.00569 -9.900362,-0.15055 l -2.531264,1.46143 z"
        id="path15063" />
      </a></g><g
      aria-label="GIB
BUS
TRACKER"
      transform="scale(0.26458333)"
      id="text15074"
      style="display:inline;opacity:1;fill:#bbcc00;fill-opacity:1;paint-order:markers stroke fill"
      class="UnoptimicedTransforms">
      <a href="/" target="_top"><path
        d="m 321.49261,830.96882 v 32.60834 l -7.71754,4.45573 v -32.60834 l -7.89215,4.55653 v -11.20911 l 23.46692,-13.54863 v 11.20911 z"
        id="path15344" />
      </a><a href="/" target="_top"><path
        d="m 354.95276,813.87968 c 0,2.67491 -0.39577,5.32356 -1.18731,7.94595 -0.79155,2.6224 -1.94394,4.87993 -3.45718,6.77262 l 5.34291,15.25745 -8.66041,5 -4.26036,-13.526 -2.86353,1.65325 v 15.98573 l -7.71754,4.45573 v -43.81746 l 14.70175,-8.48805 c 1.72277,-0.99465 3.18945,-1.22578 4.4,-0.69342 1.23388,0.47647 2.15346,1.58021 2.75876,3.31122 0.62858,1.67511 0.94287,3.72274 0.94287,6.14289 z m -7.85723,5.10957 c 0,-1.14639 -0.20952,-1.98074 -0.62858,-2.50306 -0.41905,-0.52232 -0.93122,-0.60874 -1.53652,-0.25927 l -5.06355,2.92344 v 8.0884 l 5.06355,-2.92344 c 0.6053,-0.34947 1.11747,-1.02731 1.53652,-2.0335 0.41906,-1.04866 0.62858,-2.14618 0.62858,-3.29257 z"
        id="path15346" />
      </a><a href="/" target="_top"><path
        d="m 374.68895,832.86424 -1.01271,-5.59306 -8.41596,4.85896 -1.01271,6.76244 -7.89215,4.55653 8.76517,-48.87803 8.9747,-5.18154 8.76518,38.75687 z m -7.82231,-11.46952 5.20323,-3.00408 -2.51431,-14.15196 -0.13968,0.0806 z"
        id="path15348" />
      </a><a href="/" target="_top"><path
        d="m 395.85691,776.0612 c 3.56194,-2.05649 6.3789,-2.0482 8.45088,0.0249 2.07198,2.03061 3.10797,6.06049 3.10797,12.08963 l -7.36833,4.25411 c 0,-2.54753 -0.37249,-4.34926 -1.11747,-5.4052 -0.7217,-1.06938 -1.75769,-1.21428 -3.10797,-0.4347 -1.55981,0.90055 -2.7122,2.45752 -3.45718,4.67091 -0.7217,2.19994 -1.08255,4.89211 -1.08255,8.07652 v 4.07605 c 0,3.14194 0.36085,5.41745 1.08255,6.8265 0.74498,1.35315 1.87409,1.59289 3.38734,0.71922 1.48996,-0.86023 2.61907,-2.21269 3.38734,-4.05739 0.76826,-1.84469 1.15239,-4.04081 1.15239,-6.58833 l 7.12388,-4.11298 c 0,5.98669 -1.0127,11.15692 -3.03812,15.51071 -2.00214,4.34034 -4.84238,7.57236 -8.52073,9.69605 -4.0974,2.36564 -7.20537,2.24938 -9.32391,-0.34877 -2.09526,-2.61159 -3.14289,-7.65376 -3.14289,-15.1265 0,-7.47275 1.04763,-13.72461 3.14289,-18.7556 2.11854,-5.04443 5.22651,-8.74946 9.32391,-11.1151 z"
        id="path15350" />
      </a><a href="/" target="_top"><path
        d="m 427.11703,758.77742 9.56835,-5.52429 -8.62549,23.00368 8.8001,20.71297 -9.11438,5.26219 -4.99371,-13.1663 -4.19052,8.66084 v 9.80797 l -7.71754,4.45573 v -43.81746 l 7.71754,-4.45572 v 18.72432 z"
        id="path15352" />
      </a><a href="/" target="_top"><path
        d="m 439.20552,751.79813 20.77801,-11.99619 v 10.50855 l -13.06046,7.54046 v 6.05037 l 11.17472,-6.45173 v 10.06273 l -11.17472,6.45173 v 6.68726 l 13.3049,-7.68159 v 10.50854 l -21.02245,12.13732 z"
        id="path15354" />
      </a><a href="/" target="_top"><path
        d="m 486.4944,737.93408 c 0,2.67491 -0.39577,5.32355 -1.18731,7.94595 -0.79155,2.62239 -1.94394,4.87993 -3.45718,6.77262 l 5.34291,15.25745 -8.66041,5 -4.26036,-13.526 -2.86353,1.65325 0,15.98573 -7.71754,4.45573 v -43.81746 l 14.70175,-8.48806 c 1.72277,-0.99464 3.18945,-1.22577 4.4,-0.69341 1.23388,0.47647 2.15347,1.58021 2.75876,3.31122 0.62858,1.67511 0.94287,3.72274 0.94287,6.14289 z m -7.85723,5.10957 c 0,-1.14639 -0.20952,-1.98074 -0.62858,-2.50306 -0.41905,-0.52232 -0.93122,-0.60874 -1.53652,-0.25927 l -5.06355,2.92344 v 8.08839 l 5.06355,-2.92344 c 0.6053,-0.34947 1.11747,-1.0273 1.53652,-2.0335 0.41906,-1.04865 0.62858,-2.14617 0.62858,-3.29256 z"
        id="path15356" />
      </a></g><g
      id="g15377"
      style="display:inline;opacity:1;fill:#bbcc00;fill-opacity:1;paint-order:markers stroke fill"
      transform="matrix(0.26458333,0,0,0.26458333,1,-0.35398153)">
      <a href="/" target="_top"><path
        d="m 332.84711,754.46503 c 2.61311,-1.50869 5,-2.37089 7.16094,-2.58663 2.21109,-0.29164 3.94479,0.11445 5.2011,1.21827 1.30655,1.07481 1.95983,2.73785 1.95983,4.98912 0,5.95648 -2.8895,11.37684 -8.6685,16.26109 v 0.28141 c 6.58304,-2.39367 9.87455,-0.26051 9.87455,6.39948 0,2.53268 -0.6784,5.17562 -2.03521,7.92883 -1.30656,2.6773 -3.11563,5.22262 -5.42724,7.63595 -2.3116,2.41334 -4.84933,4.41787 -7.6132,6.01359 l -34.97552,20.19313 v -48.40224 z m -17.86465,29.16851 11.4575,-6.61499 c 1.10554,-0.63828 2.01008,-1.51228 2.71361,-2.62198 0.75379,-1.18562 1.13068,-2.3178 1.13068,-3.39653 v -0.70352 c 0,-1.03183 -0.37689,-1.68191 -1.13068,-1.95023 -0.75378,-0.31523 -1.65832,-0.1682 -2.71361,0.44107 l -11.4575,6.61499 z m 0,18.29154 12.66355,-7.3113 c 1.10555,-0.63829 2.01009,-1.51229 2.71362,-2.62199 0.75378,-1.18562 1.13067,-2.31779 1.13067,-3.39653 v -0.70352 c 0,-1.07873 -0.37689,-1.75226 -1.13067,-2.02058 -0.70353,-0.34424 -1.60807,-0.19721 -2.71362,0.44107 l -12.66355,7.31131 z"
        id="path15338" />
      </a><a href="/" target="_top"><path
        d="m 414.4944,736.24064 c 0,6.6131 -2.23623,12.94608 -6.70867,18.99895 -4.47244,6.05287 -10.82934,11.45838 -19.0707,16.21653 -8.24136,4.75815 -14.62338,6.70746 -19.14608,5.84794 -4.47244,-0.88854 -6.70866,-4.63935 -6.70866,-11.25245 v -28.9147 l 16.65859,-9.61785 v 28.70365 c 0,2.72028 0.77891,4.45149 2.33673,5.19363 1.55782,0.69524 3.81916,0.18698 6.78404,-1.5248 2.96488,-1.71177 5.22623,-3.83813 6.78405,-6.37909 1.60807,-2.56997 2.4121,-5.19164 2.4121,-7.86502 v -28.70364 l 16.6586,-9.61785 z"
        id="path15340" />
      </a><a href="/" target="_top"><path
        d="m 455.2866,682.93033 c 6.63328,-3.82973 12.08564,-5.71132 16.35708,-5.64476 4.27143,0.0197 6.4574,2.4628 6.5579,7.32942 v 0.84423 l -15.60329,9.00856 v -0.2814 c 0,-1.40704 -0.55278,-2.26044 -1.65833,-2.56017 -1.10554,-0.29974 -2.78899,0.20318 -5.05034,1.50877 -2.21109,1.27658 -3.91967,2.56788 -5.12572,3.87391 -1.1558,1.27702 -1.7337,2.3611 -1.7337,3.25222 0,1.26634 0.80404,1.74016 2.4121,1.42146 1.60807,-0.3187 4.19606,-1.17971 7.76396,-2.58302 4.17093,-1.61077 7.58808,-2.73943 10.25145,-3.386 2.71361,-0.72248 5.07547,-0.67906 7.08555,0.13028 2.01009,0.80933 3.04026,2.88794 3.09051,6.23582 0,5.72197 -2.08546,11.17059 -6.25639,16.34586 -4.12068,5.14626 -9.64842,9.72129 -16.58322,13.7251 -8.0906,4.67111 -14.39725,7.04591 -18.91994,7.12442 -4.47244,0.0495 -6.70867,-3.13851 -6.70867,-9.564 l 15.75406,-9.0956 c 0,2.43887 0.6784,3.68874 2.03521,3.74961 1.35681,0.014 3.4674,-0.80592 6.33178,-2.45967 2.11059,-1.21855 3.84429,-2.43056 5.20109,-3.63602 1.40707,-1.23448 2.1106,-2.50834 2.1106,-3.82158 0,-1.17253 -0.77891,-1.59051 -2.33673,-1.25392 -1.50756,0.26068 -3.99505,1.06366 -7.46245,2.40894 -4.22118,1.59288 -7.7137,2.74162 -10.47757,3.44621 -2.76387,0.65769 -5.17598,0.52603 -7.23632,-0.395 -2.06034,-0.92102 -3.0905,-3.18724 -3.0905,-6.79864 0,-5.29986 2.18596,-10.45474 6.5579,-15.46466 4.42219,-5.08582 10,-9.57262 16.73398,-13.46037 z"
        id="path15342" />
      </a></g><g
      id="g15389"
      style="display:inline;opacity:1;fill:#bbcc00;fill-opacity:1;paint-order:markers stroke fill"
      transform="matrix(0.26458333,0,0,0.26458333,0,-15.562559)">
      <a href="/" target="_top"><path
        d="m 330.34484,755.06549 c 5.63569,-3.25377 10.70212,-5.47536 15.19929,-6.66476 4.49717,-1.1894 8.05505,-1.15643 10.67366,0.0989 2.67553,1.17556 4.01329,3.7332 4.01329,7.67292 l -18.01713,10.4022 c 0,-2.01676 -1.0816,-3.0104 -3.2448,-2.98092 -2.16319,-0.0174 -4.78179,0.86127 -7.85581,2.63605 -4.44024,2.56358 -7.79889,5.48762 -10.07593,8.77214 -2.27705,3.23761 -3.41557,6.63866 -3.41557,10.20317 v 4.50253 c 0,3.56451 1.13852,5.67436 3.41557,6.32957 2.27704,0.6083 5.63569,-0.36934 10.07593,-2.93291 3.07402,-1.77478 5.69262,-3.8729 7.85581,-6.29436 2.1632,-2.46836 3.2448,-4.64056 3.2448,-6.51662 l -13.32073,7.69073 v -9.84929 l 31.33786,-18.09293 0,27.0152 -9.73437,5.62014 -1.87857,-3.69935 c -5.35106,6.84155 -12.35298,12.76017 -21.00576,17.75585 -9.73438,5.62015 -17.04939,7.75636 -21.94504,6.40865 -4.89565,-1.39462 -7.34348,-6.2427 -7.34348,-14.54425 0,-8.20774 2.76092,-16.01619 8.28276,-23.42535 5.57877,-7.48893 13.4915,-14.19137 23.73822,-20.10731 z"
        id="path15332" />
      </a><a href="/" target="_top"><path
        d="m 381.67804,774.6747 0,-48.40223 18.87103,-10.8952 v 48.40223 z"
        id="path15334" />
      </a><a href="/" target="_top"><path
        d="m 462.04358,679.8734 c 2.96016,-1.70905 5.66415,-2.75429 8.11198,-3.13571 2.50475,-0.46119 4.46871,-0.18804 5.89186,0.81946 1.48008,0.97462 2.22012,2.58757 2.22012,4.83884 0,5.95647 -3.27325,11.5984 -9.81976,16.92578 v 0.28141 c 7.45733,-2.89846 11.18599,-1.01768 11.18599,5.64231 0,2.53268 -0.7685,5.22764 -2.30551,8.08489 -1.48008,2.77748 -3.52942,5.46152 -6.14803,8.0521 -2.6186,2.59058 -5.49337,4.7897 -8.62431,6.59735 l -39.62063,22.87498 v -48.40223 z m -20.23726,30.53834 12.97917,-7.49353 c 1.25238,-0.72306 2.27705,-1.66641 3.07402,-2.83006 0.85389,-1.24342 1.28083,-2.40449 1.28083,-3.48322 v -0.70352 c 0,-1.03183 -0.42694,-1.65301 -1.28083,-1.86354 -0.8539,-0.25743 -1.87857,-0.041 -3.07402,0.64915 l -12.97917,7.49353 z m 0,18.29154 14.3454,-8.28232 c 1.25238,-0.72306 2.27705,-1.66641 3.07401,-2.83006 0.8539,-1.24342 1.28084,-2.40449 1.28084,-3.48323 v -0.70352 c 0,-1.07873 -0.42694,-1.72336 -1.28084,-1.93388 -0.79696,-0.2903 -1.82163,-0.0739 -3.07401,0.64915 l -14.3454,8.28232 z"
        id="path15336" />
      </a></g></g></svg>
